<svg width="50" height="50" viewBox="0 0 50 50" fill="none" xmlns="http://www.w3.org/2000/svg">
<path d="M39.6622 38.0313L32.4484 30.8189C34.5393 28.3087 35.5819 25.0891 35.3593 21.8297C35.1368 18.5704 33.6663 15.5223 31.2537 13.3196C28.841 11.1169 25.6721 9.92905 22.406 10.0033C19.1399 10.0775 16.0282 11.408 13.7181 13.7181C11.408 16.0282 10.0775 19.1399 10.0033 22.406C9.92905 25.6721 11.1169 28.841 13.3196 31.2537C15.5223 33.6663 18.5704 35.1368 21.8297 35.3593C25.0891 35.5819 28.3087 34.5393 30.8189 32.4484L38.0313 39.6622C38.1384 39.7693 38.2655 39.8543 38.4054 39.9122C38.5454 39.9702 38.6953 40 38.8468 40C38.9982 40 39.1482 39.9702 39.2881 39.9122C39.428 39.8543 39.5551 39.7693 39.6622 39.6622C39.7693 39.5551 39.8543 39.428 39.9122 39.2881C39.9702 39.1482 40 38.9982 40 38.8468C40 38.6953 39.9702 38.5454 39.9122 38.4054C39.8543 38.2655 39.7693 38.1384 39.6622 38.0313ZM12.337 22.7104C12.337 20.6587 12.9454 18.6532 14.0853 16.9473C15.2251 15.2414 16.8452 13.9118 18.7407 13.1267C20.6362 12.3415 22.7219 12.1361 24.7342 12.5364C26.7464 12.9366 28.5947 13.9246 30.0455 15.3753C31.4962 16.8261 32.4842 18.6744 32.8845 20.6867C33.2847 22.6989 33.0793 24.7846 32.2942 26.6801C31.509 28.5756 30.1794 30.1957 28.4735 31.3356C26.7677 32.4754 24.7621 33.0838 22.7104 33.0838C19.9602 33.0807 17.3234 31.9868 15.3787 30.0421C13.434 28.0974 12.3401 25.4607 12.337 22.7104Z" fill="white"/>
</svg>
